# xmcd
#
# Track frame offsets: 
#        150
#        16247
#        39164
#        58657
#        80383
#        98870
#        121268
#        136727
#        151715
#        170054
#        187143
#        209412
#        225180
#
# Disc length: 3189 seconds
#
# Revision: 0
# Processed by: cddbd v1.5.2PL0 Copyright (c) Steve Scherf et al.
# Submitted via: ExactAudioCopyFreeDBPlugin 1.0
#
DISCID=9b0c730d
DTITLE=Bee Gees - Bee Gees Greatest Hits
DYEAR=2000
DGENRE=Pop
TTITLE0=Night Feber
TTITLE1=Tradegy
TTITLE2=You should be Dancing
TTITLE3=Stayin' alive
TTITLE4=How deep is your love
TTITLE5=Too much Heaven
TTITLE6=If I can't have you
TTITLE7=More than a woman
TTITLE8=Fanny (be tender with my love)
TTITLE9=Jive Talkin'
TTITLE10=Wind of change
TTITLE11=You stepped into my love
TTITLE12=Children af the World
EXTD=
EXTT0=
EXTT1=
EXTT2=
EXTT3=
EXTT4=
EXTT5=
EXTT6=
EXTT7=
EXTT8=
EXTT9=
EXTT10=
EXTT11=
EXTT12=
PLAYORDER=
